<svg xmlns="http://www.w3.org/2000/svg" width="1370" height="1544" viewBox="0 0 1370 1544">
  <defs>
    <filter id="css-a" width="101%" height="100.9%" x="-.5%" y="-.3%" filterUnits="objectBoundingBox">
      <feOffset dy="2" in="SourceAlpha" result="shadowOffsetOuter1"/>
      <feGaussianBlur in="shadowOffsetOuter1" result="shadowBlurOuter1" stdDeviation="2"/>
      <feColorMatrix in="shadowBlurOuter1" result="shadowMatrixOuter1" values="0 0 0 0 0   0 0 0 0 0   0 0 0 0 0  0 0 0 0.5 0"/>
      <feMerge>
        <feMergeNode in="shadowMatrixOuter1"/>
        <feMergeNode in="SourceGraphic"/>
      </feMerge>
    </filter>
  </defs>
  <g fill="none" fill-rule="evenodd" filter="url(#css-a)" transform="translate(4 1)">
    <polygon fill="#1572B6" points="1239.48 1372.13 1360.3 18.751 1361.88 .999 1344.08 .999 17.919 .999 .118 .999 1.699 18.751 122.388 1372.35 123.394 1383.64 134.266 1386.65 675.85 1537 684.54 1537 1227.6 1386.43 1238.47 1383.42"/>
    <polygon fill="#35A8DB" points="1256.93 96.998 681 96.998 681 1438.36 1148.76 1308.67"/>
    <g fill="#E9E9E8" transform="translate(237 276)">
      <polygon points="443.36 181.359 37.147 350.537 50.621 518.03 443.36 350.108 861.13 171.495 878.45 .154"/>
      <polygon points="443.36 .162 446.37 .162 449.8 .162 453.22 .162 456.65 .162 460.08 .162 463.51 .162 466.94 .162 470.37 .162 473.8 .162 477.23 .162 480.66 .162 484.09 .162 487.52 .162 490.95 .162 494.38 .162 497.81 .162 501.23 .162 504.66 .162 508.09 .162 511.52 .162 514.95 .162 518.38 .162 521.81 .162 525.24 .162 528.67 .162 532.1 .162 535.53 .162 538.95 .162 542.38 .162 545.81 .162 549.24 .162 552.67 .162 556.1 .162 559.53 .162 562.96 .162 566.39 .162 569.82 .162 573.25 .162 576.68 .162 580.11 .162 583.54 .162 586.97 .162 590.39 .162 593.82 .162 597.25 .162 600.68 .162 604.11 .162 607.54 .162 610.97 .162 614.4 .162 617.83 .162 621.26 .162 624.69 .162 628.12 .162 631.55 .162 634.97 .162 638.4 .162 641.83 .162 645.26 .162 648.69 .162 652.12 .162 655.55 .162 658.98 .162 662.41 .162 665.84 .162 669.27 .162 672.7 .162 676.12 .162 679.55 .162 682.98 .162 686.41 .162 689.84 .162 693.27 .162 696.7 .162 700.13 .162 703.56 .162 706.99 .162 710.42 .162 713.85 .162 717.28 .162 720.71 .162 724.13 .162 727.56 .162 730.99 .162 734.42 .162 737.85 .162 741.28 .162 744.71 .162 748.14 .162 751.57 .162 755 .162 758.43 .162 761.86 .162 765.28 .162 768.71 .162 772.14 .162 775.57 .162 779 .162 782.43 .162 785.86 .162 789.29 .162 792.72 .162 796.15 .162 799.58 .162 803.01 .162 806.44 .162 809.87 .162 813.29 .162 816.72 .162 820.15 .162 823.58 .162 827.01 .162 830.44 .162 833.87 .162 837.3 .162 840.73 .162 844.16 .162 847.59 .162 851.02 .162 854.45 .162 857.88 .162 861.3 .162 864.73 .162 868.16 .162 871.59 .162 875.02 .162 878.45 .162 875.02 34.076 871.59 67.987 868.16 101.898 864.73 135.82 861.3 169.732 861.13 171.495 861.13 171.495 857.88 171.495 854.45 171.495 851.02 171.495 847.59 171.495 844.16 171.495 840.73 171.495 837.3 171.495 833.87 171.495 830.44 171.495 827.01 171.495 823.58 171.495 820.15 171.495 816.72 171.495 813.29 171.495 809.87 171.495 806.44 171.495 803.01 171.495 799.58 171.495 796.15 171.495 792.72 171.495 789.29 171.495 785.86 171.495 782.43 171.495 779 171.495 775.57 171.495 772.14 171.495 768.71 171.495 765.28 171.495 761.86 171.495 758.43 171.495 755 171.495 751.57 171.495 748.14 171.495 744.71 171.495 741.28 171.495 737.85 171.495 734.42 171.495 730.99 171.495 727.56 171.495 724.13 171.495 720.71 171.495 717.28 171.495 713.85 171.495 710.42 171.495 706.99 171.495 703.56 171.495 700.13 171.495 696.7 171.495 693.27 171.495 689.84 171.495 686.41 171.495 682.98 171.495 679.55 171.495 676.12 171.495 672.7 171.495 669.27 171.495 665.84 171.495 662.41 171.495 658.98 171.495 655.55 171.495 652.12 171.495 648.69 171.495 645.26 171.495 641.83 171.495 638.4 171.495 634.97 171.495 631.55 171.495 628.12 171.495 624.69 171.495 621.26 171.495 617.83 171.495 614.4 171.495 610.97 171.495 607.54 171.495 604.11 171.495 600.68 171.495 597.25 171.495 593.82 171.495 590.39 171.495 586.97 171.495 583.54 171.495 580.11 171.495 576.68 171.495 573.25 171.495 569.82 171.495 566.39 171.495 562.96 171.495 559.53 171.495 556.1 171.495 552.67 171.495 549.24 171.495 545.81 171.495 542.38 171.495 538.95 171.495 535.53 171.495 532.1 171.495 528.67 171.495 525.24 171.495 521.81 171.495 518.38 171.495 514.95 171.495 511.52 171.495 508.09 171.495 504.66 171.495 501.23 171.495 497.81 171.495 494.38 171.495 490.95 171.495 487.52 171.495 484.09 171.495 480.66 171.495 477.23 171.495 473.8 171.495 470.37 171.495 467.04 171.495 466.94 171.495 463.51 171.495 460.08 171.495 456.65 171.495 453.22 171.495 449.8 171.495 446.37 171.495 443.86 171.495 443.36 171.495 442.94 171.495 439.51 171.495 436.08 171.495 432.65 171.495 429.22 171.495 425.79 171.495 422.36 171.495 418.933 171.495 415.504 171.495 412.075 171.495 408.646 171.495 405.216 171.495 401.787 171.495 398.359 171.495 394.929 171.495 391.5 171.495 388.07 171.495 384.641 171.495 381.211 171.495 377.783 171.495 374.354 171.495 370.924 171.495 367.495 171.495 364.065 171.495 360.637 171.495 357.207 171.495 353.778 171.495 350.349 171.495 346.919 171.495 343.49 171.495 340.061 171.495 336.632 171.495 333.202 171.495 329.773 171.495 326.344 171.495 322.914 171.495 319.486 171.495 316.056 171.495 312.627 171.495 309.198 171.495 305.768 171.495 302.34 171.495 298.911 171.495 295.481 171.495 292.051 171.495 288.622 171.495 285.194 171.495 281.764 171.495 278.335 171.495 274.906 171.495 271.476 171.495 268.048 171.495 264.618 171.495 261.189 171.495 257.759 171.495 254.33 171.495 250.901 171.495 247.472 171.495 244.043 171.495 240.613 171.495 237.184 171.495 233.754 171.495 230.325 171.495 226.897 171.495 223.467 171.495 220.038 171.495 216.608 171.495 213.179 171.495 209.749 171.495 206.321 171.495 202.892 171.495 199.462 171.495 196.033 171.495 192.603 171.495 189.175 171.495 185.746 171.495 182.316 171.495 178.887 171.495 175.458 171.495 172.029 171.495 168.599 171.495 165.17 171.495 161.741 171.495 158.311 171.495 154.882 171.495 151.454 171.495 148.024 171.495 144.595 171.495 141.165 171.495 137.736 171.495 134.306 171.495 130.878 171.495 127.449 171.495 124.019 171.495 120.59 171.495 117.16 171.495 113.732 171.495 110.302 171.495 106.873 171.495 103.444 171.495 100.014 171.495 96.586 171.495 93.156 171.495 89.727 171.495 86.298 171.495 82.868 171.495 79.439 171.495 76.01 171.495 72.581 171.495 69.151 171.495 65.722 171.495 62.293 171.495 58.863 171.495 55.435 171.495 52.006 171.495 48.576 171.495 45.146 171.495 41.717 171.495 38.289 171.495 34.859 171.495 31.43 171.495 28.001 171.495 24.571 171.495 21.741 171.495 21.143 166.649 17.713 138.896 14.284 111.152 10.854 83.397 7.425 55.653 3.997 27.908 .568 .162 3.997 .162 7.425 .162 10.854 .162 14.284 .162 17.713 .162 21.143 .162 24.571 .162 28.001 .162 31.43 .162 34.859 .162 38.289 .162 41.717 .162 45.146 .162 48.576 .162 52.006 .162 55.435 .162 58.863 .162 62.293 .162 65.722 .162 69.151 .162 72.581 .162 76.01 .162 79.439 .162 82.868 .162 86.298 .162 89.727 .162 93.156 .162 96.586 .162 100.014 .162 103.444 .162 106.873 .162 110.302 .162 113.732 .162 117.16 .162 120.59 .162 124.019 .162 127.449 .162 130.878 .162 134.306 .162 137.736 .162 141.165 .162 144.595 .162 148.024 .162 151.454 .162 154.882 .162 158.311 .162 161.741 .162 165.17 .162 168.599 .162 172.029 .162 175.458 .162 178.887 .162 182.316 .162 185.746 .162 189.175 .162 192.603 .162 196.033 .162 199.462 .162 202.892 .162 206.321 .162 209.749 .162 213.179 .162 216.608 .162 220.038 .162 223.467 .162 226.897 .162 230.325 .162 233.754 .162 237.184 .162 240.613 .162 244.043 .162 247.472 .162 250.901 .162 254.33 .162 257.759 .162 261.189 .162 264.618 .162 268.048 .162 271.476 .162 274.906 .162 278.335 .162 281.764 .162 285.194 .162 288.622 .162 292.051 .162 295.481 .162 298.911 .162 302.34 .162 305.768 .162 309.198 .162 312.627 .162 316.056 .162 319.486 .162 322.914 .162 326.344 .162 329.773 .162 333.202 .162 336.632 .162 340.061 .162 343.49 .162 346.919 .162 350.349 .162 353.778 .162 357.207 .162 360.637 .162 364.065 .162 367.495 .162 370.924 .162 374.354 .162 377.783 .162 381.211 .162 384.641 .162 388.07 .162 391.5 .162 394.929 .162 398.359 .162 401.787 .162 405.216 .162 408.646 .162 412.075 .162 415.504 .162 418.933 .162 422.36 .162 425.79 .162 429.22 .162 432.65 .162 436.08 .162 439.51 .162 442.94 .162"/>
      <polygon points="37.774 350.561 846.37 350.561 831.64 519.96 51.247 518.03"/>
      <polygon points="63.04 612.39 239.921 612.46 251.462 750.97 443.36 798.56 640.37 743.27 653.7 516.76 832.16 513.96 800.16 881.88 444 985.85 85.275 879.96"/>
    </g>
    <g fill="#FFFFFE" transform="translate(681 276)">
      <polygon points="0 349.833 417.13 171.495 434.45 .154 0 181.091"/>
      <polygon points="0 .162 2.37 .162 5.8 .162 9.22 .162 12.65 .162 16.08 .162 19.51 .162 22.94 .162 26.37 .162 29.8 .162 33.23 .162 36.66 .162 40.09 .162 43.52 .162 46.95 .162 50.38 .162 53.81 .162 57.23 .162 60.66 .162 64.09 .162 67.52 .162 70.95 .162 74.38 .162 77.81 .162 81.24 .162 84.67 .162 88.1 .162 91.53 .162 94.95 .162 98.38 .162 101.81 .162 105.24 .162 108.67 .162 112.1 .162 115.53 .162 118.96 .162 122.39 .162 125.82 .162 129.25 .162 132.68 .162 136.11 .162 139.54 .162 142.97 .162 146.39 .162 149.82 .162 153.25 .162 156.68 .162 160.11 .162 163.54 .162 166.97 .162 170.4 .162 173.83 .162 177.26 .162 180.69 .162 184.12 .162 187.55 .162 190.97 .162 194.4 .162 197.83 .162 201.26 .162 204.69 .162 208.12 .162 211.55 .162 214.98 .162 218.41 .162 221.84 .162 225.27 .162 228.7 .162 232.12 .162 235.55 .162 238.98 .162 242.41 .162 245.84 .162 249.27 .162 252.7 .162 256.13 .162 259.56 .162 262.99 .162 266.42 .162 269.85 .162 273.28 .162 276.71 .162 280.13 .162 283.56 .162 286.99 .162 290.42 .162 293.85 .162 297.28 .162 300.71 .162 304.14 .162 307.57 .162 311 .162 314.43 .162 317.86 .162 321.28 .162 324.71 .162 328.14 .162 331.57 .162 335 .162 338.43 .162 341.86 .162 345.29 .162 348.72 .162 352.15 .162 355.58 .162 359.01 .162 362.44 .162 365.87 .162 369.29 .162 372.72 .162 376.15 .162 379.58 .162 383.01 .162 386.44 .162 389.87 .162 393.3 .162 396.73 .162 400.16 .162 403.59 .162 407.02 .162 410.45 .162 413.88 .162 417.3 .162 420.73 .162 424.16 .162 427.59 .162 431.02 .162 434.45 .162 431.02 34.076 427.59 67.987 424.16 101.898 420.73 135.82 417.3 169.732 417.13 171.495 417.13 171.495 413.88 171.495 410.45 171.495 407.02 171.495 403.59 171.495 400.16 171.495 396.73 171.495 393.3 171.495 389.87 171.495 386.44 171.495 383.01 171.495 379.58 171.495 376.15 171.495 372.72 171.495 369.29 171.495 365.87 171.495 362.44 171.495 359.01 171.495 355.58 171.495 352.15 171.495 348.72 171.495 345.29 171.495 341.86 171.495 338.43 171.495 335 171.495 331.57 171.495 328.14 171.495 324.71 171.495 321.28 171.495 317.86 171.495 314.43 171.495 311 171.495 307.57 171.495 304.14 171.495 300.71 171.495 297.28 171.495 293.85 171.495 290.42 171.495 286.99 171.495 283.56 171.495 280.13 171.495 276.71 171.495 273.28 171.495 269.85 171.495 266.42 171.495 262.99 171.495 259.56 171.495 256.13 171.495 252.7 171.495 249.27 171.495 245.84 171.495 242.41 171.495 238.98 171.495 235.55 171.495 232.12 171.495 228.7 171.495 225.27 171.495 221.84 171.495 218.41 171.495 214.98 171.495 211.55 171.495 208.12 171.495 204.69 171.495 201.26 171.495 197.83 171.495 194.4 171.495 190.97 171.495 187.55 171.495 184.12 171.495 180.69 171.495 177.26 171.495 173.83 171.495 170.4 171.495 166.97 171.495 163.54 171.495 160.11 171.495 156.68 171.495 153.25 171.495 149.82 171.495 146.39 171.495 142.97 171.495 139.54 171.495 136.11 171.495 132.68 171.495 129.25 171.495 125.82 171.495 122.39 171.495 118.96 171.495 115.53 171.495 112.1 171.495 108.67 171.495 105.24 171.495 101.81 171.495 98.38 171.495 94.95 171.495 91.53 171.495 88.1 171.495 84.67 171.495 81.24 171.495 77.81 171.495 74.38 171.495 70.95 171.495 67.52 171.495 64.09 171.495 60.66 171.495 57.23 171.495 53.81 171.495 50.38 171.495 46.95 171.495 43.52 171.495 40.09 171.495 36.66 171.495 33.23 171.495 29.8 171.495 26.37 171.495 23.04 171.495 22.94 171.495 19.51 171.495 16.08 171.495 12.65 171.495 9.22 171.495 5.8 171.495 2.37 171.495 0 171.495"/>
      <polygon points="0 350.561 402.37 350.561 387.64 519.96 0 519"/>
      <polygon points="0 798.38 196.37 743.27 209.7 516.76 388.16 513.96 356.16 881.88 0 985.85 0 985.84"/>
    </g>
  </g>
</svg>
