<svg xmlns="http://www.w3.org/2000/svg" width="364" height="412" viewBox="0 0 364 412">
  <g fill="none">
    <polygon fill="#E44D26" points="33.644 370.877 .633 .62 363.367 .62 330.321 370.819 181.778 412"/>
    <polygon fill="#F16529" points="182 380.523 302.03 347.246 330.27 30.894 182 30.894"/>
    <polygon fill="#EBEBEB" points="182 168.217 121.91 168.217 117.76 121.716 182 121.716 182 76.305 181.843 76.305 68.132 76.305 69.219 88.488 80.38 213.627 182 213.627"/>
    <polygon fill="#EBEBEB" points="182 286.153 181.801 286.206 131.227 272.55 127.994 236.333 103.419 236.333 82.409 236.333 88.771 307.634 181.791 333.457 182 333.399"/>
    <polygon fill="#FFF" points="181.843 168.217 181.843 213.627 237.761 213.627 232.49 272.521 181.843 286.191 181.843 333.435 274.937 307.634 275.62 299.962 286.291 180.411 287.399 168.217 275.162 168.217"/>
    <polygon fill="#FFF" points="181.843 76.305 181.843 104.509 181.843 121.605 181.843 121.716 291.385 121.716 291.385 121.716 291.531 121.716 292.442 111.509 294.511 88.488 295.597 76.305"/>
  </g>
</svg>
