<svg xmlns="http://www.w3.org/2000/svg" width="95" height="91" viewBox="0 0 95 91">
  <g fill="#0868AC">
    <path d="M5.9785,21.509 C-2.3565,33.489 -1.3189,49.075 5.04832,61.804 C5.1997,62.10918 5.35838,62.40946 5.51463,62.70976 C5.61475,62.90019 5.70872,63.0955 5.81248,63.28349 C5.8711,63.39574 5.93698,63.50565 5.99803,63.61308 C6.10665,63.81571 6.21775,64.00859 6.33005,64.20634 C6.52781,64.55546 6.73045,64.90214 6.93796,65.24884 C7.05271,65.43926 7.16624,65.62969 7.28465,65.82012 C7.51414,66.19121 7.74974,66.55742 7.99021,66.92362 C8.09033,67.07987 8.18796,67.23612 8.2905,67.38748 C8.62254,67.88309 8.96189,68.37625 9.3122,68.86208 C9.3209,68.87458 9.33045,68.88898 9.34145,68.90108 C9.39645,68.97918 9.45745,69.05489 9.51357,69.13302 C9.81631,69.55049 10.12881,69.96309 10.44497,70.37082 C10.56097,70.51974 10.67812,70.66867 10.79531,70.81759 C11.0773,71.1716 11.36416,71.52317 11.65591,71.87469 C11.76453,72.00653 11.87441,72.13835 11.98427,72.26775 C12.37612,72.72918 12.77528,73.18816 13.18297,73.63735 C13.19047,73.64435 13.2001,73.65445 13.20734,73.66175 C13.22447,73.68125 13.23909,73.69345 13.25371,73.71295 C13.65166,74.14752 14.05937,74.57232 14.47201,74.99715 C14.60017,75.12899 14.7308,75.26083 14.86263,75.39023 C15.18245,75.71249 15.50715,76.02988 15.83553,76.34481 C15.96858,76.47176 16.10042,76.60116 16.23348,76.72323 C16.6717,77.13583 17.11482,77.5411 17.56648,77.93663 C17.57398,77.94363 17.57985,77.94913 17.58723,77.95373 C17.66411,78.02213 17.74348,78.08557 17.81917,78.15148 C18.21712,78.49572 18.62239,78.83752 19.03007,79.17448 C19.19608,79.30876 19.36455,79.4406 19.53178,79.57487 C19.86503,79.84098 20.20194,80.10466 20.54128,80.36345 C20.72073,80.50017 20.90017,80.63688 21.08084,80.77361 C21.45559,81.04948 21.83279,81.32048 22.21364,81.5866 C22.35279,81.68672 22.48708,81.78435 22.62623,81.87956 C22.66523,81.90646 22.70073,81.93326 22.73973,81.96016 C23.10107,82.20918 23.47093,82.44843 23.83963,82.6877 C23.99832,82.7927 24.15579,82.90253 24.31571,83.00507 C24.88211,83.36396 25.45711,83.71797 26.03811,84.05977 C26.19557,84.15017 26.35549,84.23799 26.51417,84.32833 C26.94142,84.57491 27.37111,84.81661 27.80687,85.05343 C28.04247,85.18038 28.28417,85.30001 28.52221,85.42208 C28.82982,85.58321 29.135,85.74678 29.4475,85.90303 C29.51825,85.93733 29.59155,85.97143 29.66112,86.00553 C29.78686,86.06653 29.91381,86.12516 30.03954,86.18864 C30.52415,86.42058 31.01244,86.64763 31.50564,86.86736 C31.61064,86.91376 31.71194,86.96016 31.8157,87.00652 C32.38088,87.25309 32.9509,87.48991 33.5259,87.71697 C33.66384,87.77307 33.803,87.82684 33.94216,87.88053 C34.47438,88.08562 35.01396,88.28826 35.55596,88.47868 C35.62434,88.50308 35.69025,88.52508 35.7586,88.54938 C36.35309,88.75691 36.9537,88.94977 37.5579,89.13776 C37.70194,89.17926 37.8472,89.22566 37.99246,89.26716 C38.6077,89.45271 39.21566,89.67487 39.85036,89.79206 C80.16036,97.14316 91.86936,65.56806 91.86936,65.56806 C82.03536,78.38006 64.57936,81.75906 48.04036,77.99706 C47.41414,77.85546 46.80626,77.66015 46.19466,77.47948 C46.03962,77.43308 45.88704,77.38678 45.73445,77.34032 C45.13753,77.15722 44.54545,76.96435 43.95715,76.76171 C43.87653,76.73251 43.79479,76.70311 43.713,76.67381 C43.18566,76.48826 42.6644,76.29295 42.1456,76.09276 C41.99911,76.03416 41.85262,75.97801 41.70615,75.91942 C41.1373,75.69481 40.57215,75.46043 40.01425,75.2163 C39.8995,75.1674 39.78964,75.11617 39.67611,75.06736 C39.19637,74.85008 38.72152,74.63036 38.24911,74.4033 C38.1124,74.3374 37.97567,74.27391 37.83651,74.20555 C37.46551,74.02455 37.09851,73.83155 36.73251,73.64355 C36.48751,73.51455 36.23851,73.39255 35.99551,73.25755 C35.54851,73.01855 35.10951,72.76955 34.67251,72.51555 C34.52451,72.43255 34.37451,72.35255 34.22551,72.26655 C33.64451,71.92455 33.07051,71.57055 32.50251,71.21155 C32.34551,71.11155 32.19251,71.00455 32.03751,70.90155 C31.62551,70.63555 31.21551,70.36455 30.81151,70.08655 C30.67751,69.99555 30.54851,69.89855 30.41651,69.80855 C30.02651,69.53255 29.64051,69.25355 29.25751,68.97055 C29.08351,68.84155 28.91251,68.71155 28.74351,68.58255 C28.39251,68.31355 28.04351,68.04255 27.69751,67.76455 C27.54126,67.64005 27.38501,67.51553 27.2312,67.39101 C26.79175,67.02969 26.35718,66.66591 25.9287,66.29241 C25.88358,66.25341 25.8347,66.21431 25.78588,66.17278 C25.32202,65.76507 24.86669,65.34758 24.41628,64.92768 C24.28566,64.80318 24.1587,64.68109 24.03053,64.55658 C23.69728,64.2392 23.36892,63.91938 23.04664,63.59223 C22.91725,63.46283 22.78785,63.33588 22.6609,63.20648 C22.25075,62.78657 21.84791,62.36175 21.4536,61.92968 C21.4341,61.90768 21.41335,61.88818 21.39385,61.86618 C20.97636,61.40963 20.56865,60.94333 20.16945,60.47218 C20.06083,60.34279 19.95583,60.21828 19.8484,60.09133 C19.55055,59.73244 19.25514,59.36867 18.96705,59.00243 C18.85905,58.87043 18.75105,58.73543 18.64405,58.59943 C18.29705,58.14943 17.95805,57.70043 17.62605,57.24443 C8.44375,44.71943 5.14505,27.44443 12.48405,13.25743"/>
    <path d="M31.852,11.416 C25.8242,20.0903 26.1513,31.702 30.85346,40.876 C31.64204,42.4141 32.52826,43.9058 33.51946,45.3267 C34.42277,46.6206 35.42376,48.1612 36.62246,49.2012 C37.05704,49.67972 37.51114,50.14602 37.97496,50.605 C38.09208,50.72463 38.21177,50.83938 38.33141,50.95657 C38.78185,51.39358 39.23961,51.82327 39.71321,52.24077 C39.73271,52.25537 39.74984,52.27487 39.76934,52.28967 C39.77434,52.29467 39.77934,52.29667 39.78271,52.30217 C40.30639,52.76116 40.84711,53.20306 41.39651,53.63757 C41.51863,53.73027 41.63943,53.82801 41.76272,53.92322 C42.31326,54.34559 42.87482,54.76062 43.45092,55.15612 C43.46805,55.16862 43.48267,55.18052 43.4998,55.19272 C43.75371,55.3685 44.0125,55.53208 44.27006,55.70053 C44.39331,55.78113 44.51055,55.86655 44.63506,55.94223 C45.04644,56.2059 45.46268,56.46225 45.88626,56.70883 C45.94613,56.74543 46.00464,56.77723 46.06326,56.81133 C46.42826,57.02128 46.79812,57.2288 47.16926,57.429 C47.29865,57.5022 47.43048,57.56572 47.56232,57.63408 C47.81867,57.76835 48.07502,57.90508 48.33624,58.03447 C48.37524,58.05397 48.41561,58.07107 48.45336,58.08827 C48.98437,58.34949 49.52026,58.60097 50.06716,58.84022 C50.18428,58.89152 50.3052,58.93782 50.4236,58.9867 C50.86061,59.17225 51.30251,59.35292 51.7468,59.52382 C51.93479,59.59462 52.12521,59.66298 52.3132,59.73133 C52.71604,59.88025 53.12009,60.01698 53.5278,60.15369 C53.71212,60.21229 53.8928,60.27332 54.07712,60.32948 C54.65694,60.51014 55.22942,60.73719 55.83372,60.83729 C86.95672,65.99349 94.14172,42.03129 94.14172,42.03129 C87.66472,51.35989 75.12172,55.81029 61.73672,52.33629 C61.14223,52.18004 60.55632,52.00914 59.97402,51.82602 C59.7958,51.77232 59.62123,51.71377 59.44423,51.65514 C59.03042,51.52085 58.61904,51.37925 58.21133,51.23032 C58.02457,51.16192 57.83781,51.09361 57.65469,51.02281 C57.20791,50.85191 56.76601,50.67369 56.32779,50.48814 C56.20817,50.43684 56.0873,50.39054 55.97011,50.33677 C55.4208,50.09751 54.88001,49.84605 54.34661,49.58237 C54.07195,49.4481 53.80217,49.3065 53.5324,49.16734 C53.37615,49.08684 53.21868,49.00621 53.06242,48.92564 C52.71574,48.73765 52.37151,48.54234 52.03212,48.34459 C51.95162,48.29819 51.86733,48.25419 51.78554,48.20542 C51.36439,47.95884 50.94935,47.70494 50.53794,47.44371 C50.41099,47.36311 50.28892,47.27525 50.16196,47.19224 C49.89096,47.01646 49.61997,46.83824 49.35386,46.65757 C48.78012,46.26206 48.22226,45.84702 47.67176,45.42707 C47.54481,45.32694 47.41786,45.22932 47.29335,45.12922 C41.43435,40.50322 36.79035,34.18222 34.58235,27.01422 C32.26835,19.58022 32.76735,11.23522 36.77635,4.46322"/>
    <path d="M53.613,3.875 C50.0595,9.1045 49.7104,15.599 52.1762,21.375 C54.7763,27.5054 60.1047,32.315 66.3232,34.595 C66.57955,34.6903 66.8359,34.77566 67.09591,34.86355 C67.20941,34.89775 67.32173,34.93685 67.43649,34.97092 C67.8027,35.08567 68.16647,35.21995 68.54489,35.29075 C85.72989,38.61105 90.39089,26.47235 91.63189,24.68575 C87.54869,30.56465 80.68689,31.97575 72.26789,29.93235 C71.60289,29.77035 70.87189,29.53035 70.23089,29.30335 C69.40889,29.01035 68.59889,28.67635 67.81189,28.29835 C66.31689,27.58035 64.89189,26.70835 63.57089,25.71035 C56.03689,19.99435 51.35689,9.08935 56.27289,0.20835"/>
  </g>
</svg>
